<mxfile host="app.diagrams.net" modified="2023-11-09T21:16:07.810Z" agent="Mozilla/5.0 (Windows NT 10.0; Win64; x64; rv:109.0) Gecko/20100101 Firefox/119.0" etag="Nt2KlRNnxBSdg0Yq3Xur" version="22.1.0" type="device">
  <diagram name="Seite-1" id="FzDvEMh-c74N0R4pTF2I">
    <mxGraphModel dx="1044" dy="643" grid="1" gridSize="10" guides="1" tooltips="1" connect="1" arrows="1" fold="1" page="1" pageScale="1" pageWidth="827" pageHeight="1169" math="0" shadow="0">
      <root>
        <mxCell id="0" />
        <mxCell id="1" parent="0" />
        <mxCell id="vV_Yw52JZioU_cg9gBf2-1" value="&lt;div&gt;Futter &lt;br&gt;lagern&lt;/div&gt;" style="ellipse;whiteSpace=wrap;html=1;fontStyle=1" parent="1" vertex="1">
          <mxGeometry x="131" y="70" width="110" height="70" as="geometry" />
        </mxCell>
        <mxCell id="vV_Yw52JZioU_cg9gBf2-4" value="Futter&lt;br&gt;bestellen" style="ellipse;whiteSpace=wrap;html=1;fontStyle=1" parent="1" vertex="1">
          <mxGeometry x="131" y="390" width="110" height="70" as="geometry" />
        </mxCell>
        <mxCell id="vV_Yw52JZioU_cg9gBf2-6" value="&lt;div&gt;Fütterung dokumentieren&lt;br&gt;&lt;/div&gt;" style="ellipse;whiteSpace=wrap;html=1;fontStyle=1" parent="1" vertex="1">
          <mxGeometry x="161" y="310" width="110" height="70" as="geometry" />
        </mxCell>
        <mxCell id="vV_Yw52JZioU_cg9gBf2-7" value="&lt;div&gt;Futter&lt;/div&gt;&lt;div&gt;portionieren&lt;br&gt;&lt;/div&gt;" style="ellipse;whiteSpace=wrap;html=1;fontStyle=1" parent="1" vertex="1">
          <mxGeometry x="161" y="151" width="110" height="70" as="geometry" />
        </mxCell>
        <mxCell id="vV_Yw52JZioU_cg9gBf2-8" value="Tiere &lt;br&gt;füttern" style="ellipse;whiteSpace=wrap;html=1;fontStyle=1" parent="1" vertex="1">
          <mxGeometry x="161" y="231" width="110" height="70" as="geometry" />
        </mxCell>
        <mxCell id="vV_Yw52JZioU_cg9gBf2-9" value="Tierpfleger &lt;br&gt;&lt;div&gt;Löwen&lt;/div&gt;" style="shape=umlActor;verticalLabelPosition=bottom;verticalAlign=top;html=1;outlineConnect=0;" parent="1" vertex="1">
          <mxGeometry x="65" y="235" width="30" height="60" as="geometry" />
        </mxCell>
        <mxCell id="vV_Yw52JZioU_cg9gBf2-11" value="Futterhändler" style="shape=umlActor;verticalLabelPosition=bottom;verticalAlign=top;html=1;outlineConnect=0;" parent="1" vertex="1">
          <mxGeometry x="361" y="393" width="30" height="60" as="geometry" />
        </mxCell>
        <mxCell id="vV_Yw52JZioU_cg9gBf2-15" value="" style="endArrow=none;html=1;rounded=0;" parent="1" target="vV_Yw52JZioU_cg9gBf2-1" edge="1">
          <mxGeometry width="50" height="50" relative="1" as="geometry">
            <mxPoint x="101" y="245" as="sourcePoint" />
            <mxPoint x="481" y="345" as="targetPoint" />
          </mxGeometry>
        </mxCell>
        <mxCell id="vV_Yw52JZioU_cg9gBf2-16" value="" style="endArrow=none;html=1;rounded=0;" parent="1" target="vV_Yw52JZioU_cg9gBf2-8" edge="1">
          <mxGeometry width="50" height="50" relative="1" as="geometry">
            <mxPoint x="101" y="265" as="sourcePoint" />
            <mxPoint x="481" y="195" as="targetPoint" />
          </mxGeometry>
        </mxCell>
        <mxCell id="vV_Yw52JZioU_cg9gBf2-17" value="" style="endArrow=none;html=1;rounded=0;" parent="1" target="vV_Yw52JZioU_cg9gBf2-7" edge="1">
          <mxGeometry width="50" height="50" relative="1" as="geometry">
            <mxPoint x="101" y="255" as="sourcePoint" />
            <mxPoint x="481" y="195" as="targetPoint" />
          </mxGeometry>
        </mxCell>
        <mxCell id="vV_Yw52JZioU_cg9gBf2-20" value="" style="endArrow=none;html=1;rounded=0;" parent="1" target="vV_Yw52JZioU_cg9gBf2-4" edge="1">
          <mxGeometry width="50" height="50" relative="1" as="geometry">
            <mxPoint x="101" y="285" as="sourcePoint" />
            <mxPoint x="481" y="195" as="targetPoint" />
          </mxGeometry>
        </mxCell>
        <mxCell id="vV_Yw52JZioU_cg9gBf2-21" value="" style="endArrow=none;html=1;rounded=0;" parent="1" target="vV_Yw52JZioU_cg9gBf2-6" edge="1">
          <mxGeometry width="50" height="50" relative="1" as="geometry">
            <mxPoint x="101" y="275" as="sourcePoint" />
            <mxPoint x="481" y="195" as="targetPoint" />
          </mxGeometry>
        </mxCell>
        <mxCell id="dqnK38Oaidq9VwgeB7bn-5" value="Haltbarkeit&lt;br&gt;prüfen" style="ellipse;whiteSpace=wrap;html=1;fontStyle=1" parent="1" vertex="1">
          <mxGeometry x="331" y="70" width="110" height="70" as="geometry" />
        </mxCell>
        <mxCell id="dqnK38Oaidq9VwgeB7bn-6" value="Sicherheits-&lt;br&gt;regeln&lt;br&gt;einhalten" style="ellipse;whiteSpace=wrap;html=1;fontStyle=1" parent="1" vertex="1">
          <mxGeometry x="361" y="231" width="110" height="70" as="geometry" />
        </mxCell>
        <mxCell id="dqnK38Oaidq9VwgeB7bn-7" value="&amp;lt;&amp;lt;include&amp;gt;&amp;gt;" style="html=1;verticalAlign=bottom;labelBackgroundColor=none;endArrow=open;endFill=0;dashed=1;rounded=0;" parent="1" source="vV_Yw52JZioU_cg9gBf2-1" target="dqnK38Oaidq9VwgeB7bn-5" edge="1">
          <mxGeometry width="160" relative="1" as="geometry">
            <mxPoint x="261" y="361" as="sourcePoint" />
            <mxPoint x="421" y="361" as="targetPoint" />
          </mxGeometry>
        </mxCell>
        <mxCell id="dqnK38Oaidq9VwgeB7bn-8" value="&amp;lt;&amp;lt;include&amp;gt;&amp;gt;" style="html=1;verticalAlign=bottom;labelBackgroundColor=none;endArrow=open;endFill=0;dashed=1;rounded=0;" parent="1" source="vV_Yw52JZioU_cg9gBf2-8" target="dqnK38Oaidq9VwgeB7bn-6" edge="1">
          <mxGeometry width="160" relative="1" as="geometry">
            <mxPoint x="261" y="361" as="sourcePoint" />
            <mxPoint x="421" y="361" as="targetPoint" />
          </mxGeometry>
        </mxCell>
        <mxCell id="43DMHb62WqC0eyo_Q5ui-1" value="" style="endArrow=open;startArrow=none;endFill=0;startFill=0;endSize=8;html=1;verticalAlign=bottom;labelBackgroundColor=none;strokeWidth=1;rounded=0;" edge="1" parent="1" source="vV_Yw52JZioU_cg9gBf2-4">
          <mxGeometry width="160" relative="1" as="geometry">
            <mxPoint x="241" y="543" as="sourcePoint" />
            <mxPoint x="360" y="425" as="targetPoint" />
          </mxGeometry>
        </mxCell>
      </root>
    </mxGraphModel>
  </diagram>
</mxfile>
